<?xml version="1.0" encoding="utf-8"?>
<!-- Generator: Adobe Illustrator 16.0.0, SVG Export Plug-In . SVG Version: 6.00 Build 0)  -->
<!DOCTYPE svg PUBLIC "-//W3C//DTD SVG 1.1//EN" "http://www.w3.org/Graphics/SVG/1.1/DTD/svg11.dtd">
<svg version="1.1" id="Layer_1" xmlns="http://www.w3.org/2000/svg" xmlns:xlink="http://www.w3.org/1999/xlink" x="0px" y="0px"
	 width="150px" height="150px" viewBox="0 0 150 150" enable-background="new 0 0 150 150" xml:space="preserve">
<g>
	<path fill="#EF4351" d="M75,132.771l-1.418-0.754c-2.453-1.303-60.116-32.428-63.435-75.584
		c-0.851-11.058,2.011-20.478,8.275-27.242c6.445-6.961,16.478-10.953,27.525-10.953c12.058,0,22.924,4.542,29.053,11.865
		c6.129-7.323,16.994-11.865,29.053-11.865c11.046,0,21.078,3.992,27.525,10.954c6.264,6.764,9.125,16.185,8.275,27.241
		c-3.319,43.157-60.982,74.282-63.436,75.584L75,132.771z M45.947,24.28c-9.37,0-17.787,3.287-23.092,9.015
		C17.69,38.872,15.441,46.5,16.17,55.969C18.96,92.244,66.151,120.838,75,125.891c8.849-5.053,56.039-33.646,58.83-69.922
		c0.728-9.468-1.521-17.096-6.685-22.673c-5.308-5.729-13.724-9.016-23.093-9.016c-11.702,0-22.311,5.061-26.398,12.594L75,41.767
		l-2.656-4.894C68.257,29.341,57.648,24.28,45.947,24.28z"/>
	<g>
		<path fill="#EF4351" d="M82.232,133.354c-19.143-10.175-37.217-24.399-49.902-42.064c-9.914-13.807-16.234-31.616-10.737-48.427
			c3.188-9.75,11.28-16.151,20.756-19.278c9.524-3.144,17.19-2.708,23.272,4.192c2.129,2.415,5.712,3.583,8.683,4.523
			c2.139,0.677,8.306,3.005,10.229,0.823c6.736-7.642,17.371-11.348,27.418-11.167c4.245,0.077,5.435,0.708,9.005,3.74
			c3.61,3.066,5.967,7.456,7.605,11.822c6.11,16.286-1.726,35.092-11.048,48.426c-12.79,18.293-31.913,32.908-51.522,43.334
			c-2.525,1.343,5.221,4.583,5.804,4.809c2.789,1.082,9.174,3.796,12.212,2.18c23.235-12.354,46.394-30.787,58.74-54.383
			c9.553-18.256,10.358-42.9-8.055-55.841c-18.951-13.319-52.352-18.104-69.227,1.042c6.304,1.782,12.608,3.564,18.912,5.346
			c-8.315-9.434-21.011-14.307-33.115-16.634c-12.375-2.379-25.531-1.677-36.383,5.252C-4.169,33.211-1.44,58.946,7.408,76.537
			c12.177,24.207,36.809,43.136,60.359,55.652c4.134,2.197,8.782,3.891,13.483,4.27C84.658,136.732,85.466,135.071,82.232,133.354z"
			/>
		<path fill="#EF4351" d="M38.066,20.565c-12.023,0.249-23.733,5.039-29.121,16.374c-4.677,9.839-2.287,22.207,1.586,31.894
			c7.341,18.364,23.425,32.975,38.985,44.486c5.415,4.006,11.05,7.753,16.851,11.179c1.749,1.032,3.527,1.972,5.428,2.708
			c2.691,1.044,9.29,3.855,12.212,2.18c2.022-1.159,4.014-2.371,5.985-3.615c15.158-9.556,29.498-21.303,40.364-35.633
			c12.876-16.979,21.507-45.91-0.214-59.887c-12.111-7.793-28.981-11.908-43.198-8.639c-6.062,1.394-11.311,3.91-15.816,8.227
			c-2.537,2.431-4.011,5.866-5.663,8.911c6.304,1.782,12.608,3.564,18.912,5.346c-3.189-5.877-6.335-10.196-12.011-14.028
			c-9.139-6.17-21.763-9.25-32.67-9.473c-3.398-0.07-4.212,1.2-0.983,3.105c3.803,2.244,9.023,4.178,13.482,4.269
			c1.105,0,2.208,0.045,3.309,0.136c0.185,0.011,3.1,0.761,1.252,0.077c1.713,0.633,3.639,2.757,4.869,4.284
			c1.648,2.046,2.75,4.68,3.996,6.976c1.544,2.844,16.981,8.904,18.911,5.346c2.811-5.18,5.295-9.37,10.551-12.537
			c4.084-2.46,8.849-3.637,13.541-4.119c2.008-0.206,4.068-0.192,6.066,0.104c-0.313-0.118-0.629-0.231-0.945-0.342
			c1.039,0.464,1.946,1.281,2.817,1.986c12.922,10.447,7.872,31.275,1.393,43.788c-10.879,21.007-31.773,37.158-51.964,48.73
			c5.414,1.358,10.828,2.717,16.241,4.076c-16.167-9.266-31.444-21.294-42.926-36.034C31.482,80.394,25.857,68.611,25.57,55.722
			c-0.373-16.691,12.151-27.395,28.258-27.728c4.36-0.09-1.547-3.652-2.469-4.087C47.32,22.002,42.577,20.472,38.066,20.565z"/>
	</g>
</g>
</svg>
